<?xml version="1.0" encoding="UTF-8" standalone="no"?>
<!DOCTYPE svg PUBLIC "-//W3C//DTD SVG 1.1//EN"
 "http://www.w3.org/Graphics/SVG/1.1/DTD/svg11.dtd">
<!-- Generated by graphviz version 2.47.0 (20210316.0004)
 -->
<!-- Pages: 1 -->
<svg width="1335pt" height="429pt"
 viewBox="0.00 0.00 1334.67 429.00" xmlns="http://www.w3.org/2000/svg" xmlns:xlink="http://www.w3.org/1999/xlink">
<g id="graph0" class="graph" transform="scale(1 1) rotate(0) translate(4 425)">
<polygon fill="white" stroke="transparent" points="-4,4 -4,-425 1330.67,-425 1330.67,4 -4,4"/>
<text text-anchor="middle" x="663.33" y="-7.8" font-family="Times New Roman,serif" font-size="14.00">State Machine</text>
<!-- user -->
<g id="node1" class="node">
<title>user</title>
<ellipse fill="darksalmon" stroke="red" cx="90.67" cy="-222" rx="43" ry="43"/>
<ellipse fill="none" stroke="red" cx="90.67" cy="-222" rx="47" ry="47"/>
<text text-anchor="middle" x="90.67" y="-218.3" font-family="Times New Roman,serif" font-size="14.00">user</text>
</g>
<!-- menu -->
<g id="node2" class="node">
<title>menu</title>
<ellipse fill="white" stroke="black" cx="650.67" cy="-222" rx="43" ry="43"/>
<text text-anchor="middle" x="650.67" y="-218.3" font-family="Times New Roman,serif" font-size="14.00">menu</text>
</g>
<!-- user&#45;&gt;menu -->
<g id="edge1" class="edge">
<title>user&#45;&gt;menu</title>
<path fill="none" stroke="black" d="M137.8,-222C240.76,-222 488.69,-222 597.26,-222"/>
<polygon fill="black" stroke="black" points="597.32,-225.5 607.32,-222 597.32,-218.5 597.32,-225.5"/>
<text text-anchor="middle" x="374.67" y="-225.8" font-family="Times New Roman,serif" font-size="14.00">advance [is_going_to_menu]</text>
</g>
<!-- menu&#45;&gt;menu -->
<g id="edge2" class="edge">
<title>menu&#45;&gt;menu</title>
<path fill="none" stroke="black" d="M611.45,-240.42C586.11,-260.36 599.19,-283 650.67,-283 696.11,-283 711.63,-265.36 697.21,-247.5"/>
<polygon fill="black" stroke="black" points="699.5,-244.86 689.88,-240.42 694.64,-249.89 699.5,-244.86"/>
<text text-anchor="middle" x="650.67" y="-286.8" font-family="Times New Roman,serif" font-size="14.00">advance [is_going_to_menu]</text>
</g>
<!-- airline -->
<g id="node3" class="node">
<title>airline</title>
<ellipse fill="white" stroke="black" cx="1243.67" cy="-378" rx="43" ry="43"/>
<text text-anchor="middle" x="1243.67" y="-374.3" font-family="Times New Roman,serif" font-size="14.00">airline</text>
</g>
<!-- menu&#45;&gt;airline -->
<g id="edge3" class="edge">
<title>menu&#45;&gt;airline</title>
<path fill="none" stroke="black" d="M684.39,-249.04C722.6,-278.88 788.97,-325.53 854.67,-347 970,-384.69 1114.42,-384.76 1190.39,-381.44"/>
<polygon fill="black" stroke="black" points="1190.82,-384.92 1200.64,-380.95 1190.49,-377.93 1190.82,-384.92"/>
<text text-anchor="middle" x="946.67" y="-382.8" font-family="Times New Roman,serif" font-size="14.00">advance [is_going_to_airline]</text>
</g>
<!-- vjw -->
<g id="node4" class="node">
<title>vjw</title>
<ellipse fill="white" stroke="black" cx="1243.67" cy="-274" rx="43" ry="43"/>
<text text-anchor="middle" x="1243.67" y="-270.3" font-family="Times New Roman,serif" font-size="14.00">vjw</text>
</g>
<!-- menu&#45;&gt;vjw -->
<g id="edge4" class="edge">
<title>menu&#45;&gt;vjw</title>
<path fill="none" stroke="black" d="M693.05,-230.72C733.92,-238.96 798.31,-250.93 854.67,-257 974.4,-269.89 1115.91,-273.07 1190.54,-273.81"/>
<polygon fill="black" stroke="black" points="1190.59,-277.31 1200.62,-273.9 1190.65,-270.31 1190.59,-277.31"/>
<text text-anchor="middle" x="946.67" y="-272.8" font-family="Times New Roman,serif" font-size="14.00">advance [is_going_to_vjw]</text>
</g>
<!-- hotel -->
<g id="node5" class="node">
<title>hotel</title>
<ellipse fill="white" stroke="black" cx="1243.67" cy="-170" rx="43" ry="43"/>
<text text-anchor="middle" x="1243.67" y="-166.3" font-family="Times New Roman,serif" font-size="14.00">hotel</text>
</g>
<!-- menu&#45;&gt;hotel -->
<g id="edge5" class="edge">
<title>menu&#45;&gt;hotel</title>
<path fill="none" stroke="black" d="M693.65,-218.26C734.7,-214.61 798.98,-208.91 854.67,-204 974.97,-193.4 1116.26,-181.04 1190.7,-174.54"/>
<polygon fill="black" stroke="black" points="1191.09,-178.02 1200.75,-173.66 1190.49,-171.04 1191.09,-178.02"/>
<text text-anchor="middle" x="946.67" y="-207.8" font-family="Times New Roman,serif" font-size="14.00">advance [is_going_to_hotel]</text>
</g>
<!-- attraction -->
<g id="node6" class="node">
<title>attraction</title>
<ellipse fill="white" stroke="black" cx="1243.67" cy="-66" rx="43" ry="43"/>
<text text-anchor="middle" x="1243.67" y="-62.3" font-family="Times New Roman,serif" font-size="14.00">attraction</text>
</g>
<!-- menu&#45;&gt;attraction -->
<g id="edge6" class="edge">
<title>menu&#45;&gt;attraction</title>
<path fill="none" stroke="black" d="M689.78,-203.98C729.99,-185.6 795.6,-157.38 854.67,-140 972.63,-105.29 1115.71,-82.9 1190.83,-72.6"/>
<polygon fill="black" stroke="black" points="1191.54,-76.03 1200.97,-71.22 1190.6,-69.1 1191.54,-76.03"/>
<text text-anchor="middle" x="946.67" y="-143.8" font-family="Times New Roman,serif" font-size="14.00">advance [is_going_to_attraction]</text>
</g>
<!-- airline&#45;&gt;menu -->
<g id="edge7" class="edge">
<title>airline&#45;&gt;menu</title>
<path fill="none" stroke="black" d="M1201.71,-367.63C1160.58,-357.29 1095.33,-341.1 1038.67,-328 957.13,-309.15 935.45,-309.85 854.67,-288 801.51,-273.62 741.67,-253.7 700.82,-239.51"/>
<polygon fill="black" stroke="black" points="701.96,-236.21 691.37,-236.22 699.66,-242.82 701.96,-236.21"/>
<text text-anchor="middle" x="946.67" y="-331.8" font-family="Times New Roman,serif" font-size="14.00">go_back</text>
</g>
<!-- vjw&#45;&gt;menu -->
<g id="edge8" class="edge">
<title>vjw&#45;&gt;menu</title>
<path fill="none" stroke="black" d="M1201.48,-265.07C1160.44,-256.56 1095.52,-244.16 1038.67,-238 919.43,-225.07 778.48,-222.39 703.96,-221.96"/>
<polygon fill="black" stroke="black" points="703.91,-218.45 693.89,-221.91 703.88,-225.45 703.91,-218.45"/>
<text text-anchor="middle" x="946.67" y="-241.8" font-family="Times New Roman,serif" font-size="14.00">go_back</text>
</g>
<!-- hotel&#45;&gt;menu -->
<g id="edge9" class="edge">
<title>hotel&#45;&gt;menu</title>
<path fill="none" stroke="black" d="M1200.82,-166.35C1129.45,-160.91 979.77,-152.94 854.67,-169 801.27,-175.86 741.85,-192.46 701.18,-205.28"/>
<polygon fill="black" stroke="black" points="699.97,-201.99 691.51,-208.36 702.1,-208.66 699.97,-201.99"/>
<text text-anchor="middle" x="946.67" y="-172.8" font-family="Times New Roman,serif" font-size="14.00">go_back</text>
</g>
<!-- attraction&#45;&gt;menu -->
<g id="edge10" class="edge">
<title>attraction&#45;&gt;menu</title>
<path fill="none" stroke="black" d="M1201.09,-59.81C1128.55,-50.65 975.12,-38.6 854.67,-79 789.99,-100.69 727.71,-150.21 689.57,-184.86"/>
<polygon fill="black" stroke="black" points="686.79,-182.66 681.81,-192.01 691.53,-187.81 686.79,-182.66"/>
<text text-anchor="middle" x="946.67" y="-82.8" font-family="Times New Roman,serif" font-size="14.00">go_back</text>
</g>
</g>
</svg>
